<svg width="138" height="52" viewBox="0 0 138 52" fill="none" xmlns="http://www.w3.org/2000/svg">
<path d="M73.15 25.15C72.57 23.93 71.73 22.99 70.63 22.33C69.53 21.65 68.25 21.31 66.79 21.31C65.33 21.31 64.01 21.65 62.83 22.33C61.67 22.99 60.75 23.95 60.07 25.21C59.41 26.45 59.08 27.89 59.08 29.53C59.08 31.17 59.41 32.61 60.07 33.85C60.75 35.09 61.67 36.05 62.83 36.73C64.01 37.39 65.33 37.72 66.79 37.72C68.83 37.72 70.51 37.11 71.83 35.89C73.15 34.67 73.92 33.02 74.14 30.94H65.8V28.72H77.05V30.82C76.89 32.54 76.35 34.12 75.43 35.56C74.51 36.98 73.3 38.11 71.8 38.95C70.3 39.77 68.63 40.18 66.79 40.18C64.85 40.18 63.08 39.73 61.48 38.83C59.88 37.91 58.61 36.64 57.67 35.02C56.75 33.4 56.29 31.57 56.29 29.53C56.29 27.49 56.75 25.66 57.67 24.04C58.61 22.4 59.88 21.13 61.48 20.23C63.08 19.31 64.85 18.85 66.79 18.85C69.01 18.85 70.97 19.4 72.67 20.5C74.39 21.6 75.64 23.15 76.42 25.15H73.15ZM81.5296 40.18C81.0096 40.18 80.5696 40 80.2096 39.64C79.8496 39.28 79.6696 38.84 79.6696 38.32C79.6696 37.8 79.8496 37.36 80.2096 37C80.5696 36.64 81.0096 36.46 81.5296 36.46C82.0296 36.46 82.4496 36.64 82.7896 37C83.1496 37.36 83.3296 37.8 83.3296 38.32C83.3296 38.84 83.1496 39.28 82.7896 39.64C82.4496 40 82.0296 40.18 81.5296 40.18ZM93.4684 19.09C95.7484 19.09 97.7184 19.52 99.3784 20.38C101.058 21.22 102.338 22.43 103.218 24.01C104.118 25.59 104.568 27.45 104.568 29.59C104.568 31.73 104.118 33.59 103.218 35.17C102.338 36.73 101.058 37.93 99.3784 38.77C97.7184 39.59 95.7484 40 93.4684 40H86.9584V19.09H93.4684ZM93.4684 37.75C96.1684 37.75 98.2284 37.04 99.6484 35.62C101.068 34.18 101.778 32.17 101.778 29.59C101.778 26.99 101.058 24.96 99.6184 23.5C98.1984 22.04 96.1484 21.31 93.4684 21.31H89.6884V37.75H93.4684ZM109.039 40.18C108.519 40.18 108.079 40 107.719 39.64C107.359 39.28 107.179 38.84 107.179 38.32C107.179 37.8 107.359 37.36 107.719 37C108.079 36.64 108.519 36.46 109.039 36.46C109.539 36.46 109.959 36.64 110.299 37C110.659 37.36 110.839 37.8 110.839 38.32C110.839 38.84 110.659 39.28 110.299 39.64C109.959 40 109.539 40.18 109.039 40.18ZM135.678 19.24V40H132.948V24.52L126.048 40H124.128L117.198 24.49V40H114.468V19.24H117.408L125.088 36.4L132.768 19.24H135.678Z" fill="#2E80E0"/>
<path d="M31.1011 26.3283L28.2188 25.6497L24.8594 24.8594C24.8594 26.3434 23.3552 27.5469 21.5 27.5469C19.6448 27.5469 18.1406 26.3434 18.1406 24.8594L14.7812 25.6497L11.8989 26.3283C10.4248 26.675 9.11105 27.5097 8.17078 28.6968C7.2305 29.8838 6.71883 31.3538 6.71875 32.8681V41.6562H36.2812V32.8681C36.2812 31.3538 35.7695 29.8838 34.8292 28.6968C33.8889 27.5097 32.5752 26.675 31.1011 26.3283ZM14.7812 34.9375C14.3826 34.9375 13.9929 34.8193 13.6614 34.5978C13.33 34.3763 13.0716 34.0615 12.9191 33.6932C12.7665 33.3249 12.7266 32.9196 12.8044 32.5286C12.8821 32.1377 13.0741 31.7785 13.356 31.4966C13.6379 31.2147 13.997 31.0228 14.388 30.945C14.779 30.8672 15.1843 30.9071 15.5526 31.0597C15.9209 31.2122 16.2357 31.4706 16.4572 31.8021C16.6787 32.1335 16.7969 32.5232 16.7969 32.9219C16.7967 33.4564 16.5843 33.969 16.2064 34.347C15.8284 34.725 15.3158 34.9374 14.7812 34.9375Z" fill="#57A4FF"/>
<path d="M25.5312 15.4531V22.1719H17.4688V15.4531L21.5 14.7812L25.5312 15.4531Z" fill="#57A4FF"/>
<path d="M29.5625 8.0625V10.75H28.2188C27.4385 10.75 26.6592 10.1462 25.9965 9.40625C24.945 8.23383 24.1875 6.71875 24.1875 6.71875C23.8642 7.68961 21.6688 8.66047 19.481 9.40625C17.1269 10.2083 14.7812 10.75 14.7812 10.75H13.4375V8.0625C13.4375 6.28058 14.1454 4.57164 15.4054 3.31163C16.6654 2.05162 18.3743 1.34375 20.1562 1.34375H22.8438C23.7261 1.34375 24.5997 1.51754 25.4149 1.85518C26.2301 2.19283 26.9707 2.68773 27.5946 3.31163C28.2185 3.93552 28.7134 4.67619 29.0511 5.49135C29.3887 6.3065 29.5625 7.18018 29.5625 8.0625V8.0625Z" fill="#57A4FF"/>
<path d="M18.1406 12.7656C18.5117 12.7656 18.8125 12.4648 18.8125 12.0938C18.8125 11.7227 18.5117 11.4219 18.1406 11.4219C17.7696 11.4219 17.4688 11.7227 17.4688 12.0938C17.4688 12.4648 17.7696 12.7656 18.1406 12.7656Z" fill="#004FAC"/>
<path d="M24.8594 12.7656C25.2304 12.7656 25.5312 12.4648 25.5312 12.0938C25.5312 11.7227 25.2304 11.4219 24.8594 11.4219C24.4883 11.4219 24.1875 11.7227 24.1875 12.0938C24.1875 12.4648 24.4883 12.7656 24.8594 12.7656Z" fill="#004FAC"/>
<path d="M31.2548 25.674L25.5313 24.3269V22.8438C25.7094 22.8438 25.8803 22.773 26.0063 22.647C26.1323 22.521 26.2031 22.3501 26.2031 22.1719V21.8259C27.0286 21.2718 27.7054 20.5234 28.174 19.6465C28.6426 18.7696 28.8887 17.7911 28.8906 16.7969H29.5625C30.0969 16.7962 30.6091 16.5836 30.987 16.2057C31.3648 15.8279 31.5774 15.3156 31.5781 14.7812V12.0938C31.5776 11.6771 31.4482 11.2709 31.2076 10.9307C30.967 10.5906 30.627 10.3333 30.2344 10.194V8.0625C30.2322 6.10307 29.4528 4.22452 28.0673 2.83899C26.6817 1.45346 24.8032 0.674098 22.8438 0.671875H20.1563C18.1968 0.674098 16.3183 1.45346 14.9327 2.83899C13.5472 4.22452 12.7679 6.10307 12.7656 8.0625V10.194C12.373 10.3333 12.033 10.5906 11.7924 10.9307C11.5518 11.2709 11.4224 11.6771 11.4219 12.0938V14.7812C11.4226 15.3156 11.6352 15.8279 12.013 16.2057C12.3909 16.5836 12.9031 16.7962 13.4375 16.7969H14.1094C14.1113 17.7911 14.3574 18.7696 14.826 19.6465C15.2946 20.5234 15.9714 21.2718 16.7969 21.8259V22.1719C16.7969 22.3501 16.8677 22.521 16.9937 22.647C17.1197 22.773 17.2906 22.8438 17.4688 22.8438V24.3269L11.7452 25.674C10.1212 26.0508 8.67307 26.9676 7.63791 28.2745C6.60274 29.5814 6.0418 31.2009 6.04688 32.8681V41.6562C6.04688 41.8344 6.11767 42.0053 6.24367 42.1313C6.36967 42.2573 6.54056 42.3281 6.71875 42.3281H36.2812C36.4594 42.3281 36.6303 42.2573 36.7563 42.1313C36.8823 42.0053 36.9531 41.8344 36.9531 41.6562V32.8681C36.9582 31.2009 36.3973 29.5814 35.3621 28.2745C34.3269 26.9676 32.8788 26.0508 31.2548 25.674V25.674ZM27.5469 16.7969C27.5446 18.0266 27.0625 19.2069 26.2031 20.0865V15.7311L27.5469 14.3874V16.7969ZM30.2344 12.0938V14.7812C30.2341 14.9594 30.1633 15.1301 30.0373 15.2561C29.9114 15.382 29.7406 15.4529 29.5625 15.4531H28.8906V11.4219H29.5625C29.7406 11.4221 29.9114 11.493 30.0373 11.6189C30.1633 11.7449 30.2341 11.9156 30.2344 12.0938V12.0938ZM14.1094 15.4531H13.4375C13.2594 15.4529 13.0886 15.382 12.9627 15.2561C12.8367 15.1301 12.7659 14.9594 12.7656 14.7812V12.0938C12.7659 11.9156 12.8367 11.7449 12.9627 11.6189C13.0886 11.493 13.2594 11.4221 13.4375 11.4219H14.1094V15.4531ZM14.1094 10.0781V8.0625C14.1112 6.45934 14.7489 4.92236 15.8825 3.78875C17.0161 2.65514 18.5531 2.01747 20.1563 2.01562H22.8438C24.4469 2.01747 25.9839 2.65514 27.1175 3.78875C28.2511 4.92236 28.8888 6.45934 28.8906 8.0625V10.0781H28.2187C27.0127 10.0781 25.3868 7.61234 24.7888 6.41809C24.7294 6.2991 24.6361 6.20041 24.5206 6.13452C24.4051 6.06862 24.2726 6.03849 24.14 6.04793C24.0073 6.05738 23.8804 6.10597 23.7754 6.18756C23.6704 6.26915 23.592 6.38007 23.5501 6.50627C23.498 6.66332 23.0336 7.51408 19.0283 8.85027C17.043 9.51207 15.097 9.9849 14.7031 10.0781H14.1094ZM16.7969 20.0865C15.9375 19.2069 15.4554 18.0266 15.4531 16.7969V14.3874L16.7969 15.7311V20.0865ZM15.4531 12.4876V11.2791C16.2401 11.0834 17.8114 10.6719 19.4449 10.1277C22.0652 9.25424 23.3989 8.51938 24.0943 7.92477C24.311 8.2817 24.5881 8.70834 24.9098 9.1375C25.8084 10.336 26.6928 11.0658 27.5469 11.3194V12.4876L25.3003 14.7334L21.6109 14.1186C21.5375 14.106 21.4625 14.106 21.3891 14.1186L17.6997 14.7334L15.4531 12.4876ZM18.1406 21.5V16.0225L21.5 15.4624L24.8594 16.0225V21.5H18.1406ZM24.1875 22.8438V24.8594C24.1875 25.9705 22.9823 26.875 21.5 26.875C20.0177 26.875 18.8125 25.9705 18.8125 24.8594V22.8438H24.1875ZM35.6094 40.9844H31.5781V36.9531C31.5781 36.7749 31.5073 36.604 31.3813 36.478C31.2553 36.352 31.0844 36.2812 30.9062 36.2812C30.7281 36.2812 30.5572 36.352 30.4312 36.478C30.3052 36.604 30.2344 36.7749 30.2344 36.9531V40.9844H12.7656V36.9531C12.7656 36.7749 12.6948 36.604 12.5688 36.478C12.4428 36.352 12.2719 36.2812 12.0938 36.2812C11.9156 36.2812 11.7447 36.352 11.6187 36.478C11.4927 36.604 11.4219 36.7749 11.4219 36.9531V40.9844H7.39063V32.8681C7.38637 31.5041 7.84526 30.1791 8.69217 29.1099C9.53909 28.0407 10.7239 27.2906 12.0526 26.9825L14.1094 26.4979V30.3192C13.476 30.4827 12.9241 30.8716 12.5569 31.413C12.1898 31.9544 12.0328 32.6111 12.1152 33.26C12.1976 33.9089 12.5139 34.5055 13.0047 34.9379C13.4955 35.3703 14.1271 35.6089 14.7813 35.6089C15.4354 35.6089 16.067 35.3703 16.5578 34.9379C17.0487 34.5055 17.3649 33.9089 17.4473 33.26C17.5298 32.6111 17.3727 31.9544 17.0056 31.413C16.6384 30.8716 16.0865 30.4827 15.4531 30.3192V26.2031C15.4531 26.1964 15.4523 26.1897 15.4523 26.1821L17.5905 25.6791C18.0306 27.137 19.6162 28.2188 21.5 28.2188C23.3838 28.2188 24.9694 27.137 25.4095 25.6791L27.5477 26.1821C27.5477 26.1897 27.5469 26.1964 27.5469 26.2031V30.9734C26.7886 31.1293 26.1072 31.5419 25.6177 32.1416C25.1281 32.7413 24.8603 33.4915 24.8594 34.2656C24.8594 34.4438 24.9302 34.6147 25.0562 34.7407C25.1822 34.8667 25.3531 34.9375 25.5313 34.9375H26.875C27.0532 34.9375 27.2241 34.8667 27.3501 34.7407C27.4761 34.6147 27.5469 34.4438 27.5469 34.2656C27.5469 34.0874 27.4761 33.9165 27.3501 33.7905C27.2241 33.6645 27.0532 33.5938 26.875 33.5938H26.3182C26.457 33.2006 26.7144 32.8602 27.0548 32.6194C27.3951 32.3787 27.8018 32.2494 28.2187 32.2494C28.6357 32.2494 29.0424 32.3787 29.3827 32.6194C29.7231 32.8602 29.9805 33.2006 30.1193 33.5938H29.5625C29.3843 33.5938 29.2134 33.6645 29.0874 33.7905C28.9614 33.9165 28.8906 34.0874 28.8906 34.2656C28.8906 34.4438 28.9614 34.6147 29.0874 34.7407C29.2134 34.8667 29.3843 34.9375 29.5625 34.9375H30.9062C31.0844 34.9375 31.2553 34.8667 31.3813 34.7407C31.5073 34.6147 31.5781 34.4438 31.5781 34.2656C31.5772 33.4915 31.3094 32.7413 30.8198 32.1416C30.3303 31.5419 29.6489 31.1293 28.8906 30.9734V26.4979L30.9474 26.9825C32.2761 27.2906 33.4609 28.0407 34.3078 29.1099C35.1547 30.1791 35.6136 31.5041 35.6094 32.8681V40.9844ZM14.7813 31.5781C15.047 31.5781 15.3068 31.6569 15.5278 31.8046C15.7488 31.9522 15.921 32.1621 16.0227 32.4076C16.1244 32.6532 16.151 32.9234 16.0992 33.184C16.0473 33.4447 15.9194 33.6841 15.7314 33.8721C15.5435 34.06 15.3041 34.188 15.0434 34.2398C14.7827 34.2917 14.5126 34.265 14.267 34.1633C14.0215 34.0616 13.8116 33.8894 13.664 33.6684C13.5163 33.4474 13.4375 33.1876 13.4375 32.9219C13.438 32.5656 13.5797 32.2241 13.8316 31.9722C14.0835 31.7203 14.425 31.5786 14.7813 31.5781Z" fill="#004FAC"/>
</svg>
